<svg width="191" height="41" viewBox="0 0 191 41" fill="none" xmlns="http://www.w3.org/2000/svg">
<path d="M58.8427 36.9731L58.8135 12.3481H73.122C82.2221 12.3481 85.8797 14.2043 85.8797 18.8137C85.8797 21.2886 84.8263 22.8663 82.2514 24.3203C85.2945 25.8052 86.5235 27.5067 86.5235 30.2909C86.5235 35.055 82.9244 36.9731 73.9121 36.9731H58.8427ZM64.256 22.0929H74.3802C78.1256 22.0929 79.6179 21.2577 79.6179 19.0922C79.6179 17.1123 78.1256 16.3389 74.3802 16.3389H64.256V22.0929ZM64.2853 32.642H75.6384C78.9449 32.642 80.2616 31.7449 80.2616 29.4247C80.2616 27.1355 78.9157 26.2383 75.6384 26.2383H64.2853V32.642Z" fill="white"/>
<path d="M44.9446 13.2765H38.2439L38.1853 13.0909C37.4538 10.6779 36.2249 9.74981 35.1422 9.13109C32.1869 7.49149 27.4759 7.33682 22.8819 7.33682C21.9748 7.33682 21.0678 7.33682 20.1607 7.33682H19.2243L17.4102 0.561871L19.0195 0.530938C20.2777 0.500002 21.6237 0.5 22.9112 0.5C32.3624 0.5 41.7844 1.3662 44.5349 11.606L44.9446 13.2765Z" fill="white"/>
<path d="M45.0329 20.8247L44.6233 22.5262C42.458 31.8688 35.2598 33.4156 27.7983 33.6631L26.8327 33.694L25.0186 26.9191L26.6279 26.8881C27.9739 26.8572 29.0273 26.7953 30.0222 26.7334C32.3338 26.5169 34.0309 26.1147 35.2598 25.4651C36.7814 24.6607 37.747 23.3305 38.303 21.2578L38.42 20.8247H45.0329Z" fill="white"/>
<path d="M20.9215 14.0808L19.3121 14.1117C15.6545 14.1427 11.9969 14.3592 9.68533 15.5657C8.16377 16.37 7.13964 17.7931 6.58368 19.9277H0C0.819303 14.8542 3.04313 11.4203 6.81777 9.44041C10.1242 7.708 14.2208 7.39865 18.1417 7.30584L19.1073 7.2749L20.9215 14.0808Z" fill="#FF5F00"/>
<path d="M28.5303 40.3765L26.9502 40.4384C25.3409 40.5002 23.673 40.5002 22.0344 40.5002C15.7141 40.5002 10.6812 40.0362 6.76026 37.7779C3.19044 35.7361 0.93736 32.3641 0.0887964 27.7547L0.0302734 27.4453H6.64322C7.49178 30.4461 9.04261 31.3432 9.83265 31.7763C12.7587 33.4469 17.4405 33.6634 22.0637 33.6634C23.3511 33.6634 24.5801 33.6634 25.809 33.6325L26.7747 33.6015L28.5303 40.3765Z" fill="#FF5F00"/>
<path d="M118.215 29.6106L121.609 33.292C118.156 36.0143 113.211 37.623 107.944 37.623C103.555 37.623 99.3414 36.5093 96.0349 34.4985C93.1088 32.7042 91.2069 29.3631 91.1191 25.7746C91.0898 24.8155 91.0898 23.8565 91.0898 22.8975V22.8666C91.0898 19.1852 92.9333 15.7513 95.9179 13.9261C99.2536 11.8844 103.526 10.7397 107.944 10.7397C113.299 10.7397 118.273 12.3793 121.697 15.1636L118.244 18.814C115.669 16.9578 111.924 15.8442 107.915 15.8442C104.316 15.8442 100.921 16.7413 98.3173 18.319C96.7957 19.2471 95.8594 21.0104 95.8594 22.8666V22.8975C95.8594 23.7947 95.8594 24.7227 95.8886 25.6199C95.9471 27.4451 96.8835 29.1466 98.3758 30.0746C100.98 31.6524 104.345 32.5186 107.915 32.5186C111.894 32.5495 115.64 31.4667 118.215 29.6106Z" fill="white"/>
<path d="M125.12 36.7569L125.793 35.5504L137.819 13.4622L138.463 12.3176H143.642L156.283 35.4267L157.014 36.726L157.102 36.9425H151.045L150.987 36.7879L150.577 36.0145L148.382 31.5597H133.723L131.645 35.767L131.118 36.7879L131.001 37.0044H125.062L125.12 36.7569ZM146.159 27.5999L140.979 17.2364L135.8 27.5999H146.159Z" fill="white"/>
<path d="M161.93 29.6106C165.676 31.9307 170.065 33.1372 174.834 33.1063C181.096 33.0754 184.842 32.0236 184.842 29.6106C184.842 27.7853 182.442 27.1666 176.444 26.8882C166.261 26.4242 161.199 24.0112 161.199 19.278C161.199 14.1426 165.676 11.4512 174.278 11.4203C180.16 11.3894 184.724 12.534 188.821 14.6376L187.299 19.4327C183.817 17.329 179.75 16.1844 174.191 16.2153C168.631 16.2772 166.407 17.0815 166.407 19.0614C166.407 21.0413 169.187 21.7529 175.332 21.9694C185.222 22.3406 190.401 24.6299 190.401 29.5796C190.401 35.0553 184.842 37.9014 174.22 37.9014C168.924 37.9014 163.979 36.4783 160.058 34.1891L161.93 29.6106Z" fill="white"/>
</svg>
